<svg  width="24" height="24" viewBox="0 0 24 24" fill="none" xmlns="http://www.w3.org/2000/svg">
<path opacity="0.12" fill-rule="evenodd" clip-rule="evenodd" d="M21.5 9.5L20.029 16.8552C19.6624 18.6879 19.4792 19.6042 19.0007 20.2896C18.5788 20.894 17.9981 21.3701 17.3226 21.6653C16.5567 22.0001 15.6222 22.0001 13.7533 22.0001H10.2467C8.3778 22.0001 7.44332 22.0001 6.67737 21.6653C6.00194 21.3701 5.42121 20.894 4.99929 20.2896C4.52083 19.6042 4.33756 18.6879 3.97103 16.8552L2.5 9.5L7.47452 4.52548C9.05858 2.94142 9.85062 2.14938 10.7639 1.85263C11.5673 1.5916 12.4327 1.5916 13.2361 1.85263C14.1494 2.14938 14.9414 2.94142 16.5255 4.52548L21.5 9.5ZM12 15C13.6569 15 15 13.6569 15 12C15 10.3431 13.6569 9 12 9C10.3431 9 9 10.3431 9 12C9 13.6569 10.3431 15 12 15Z" fill="#FFDB6E"/>
<path d="M2.5 9.5L3.97103 16.8552C4.33756 18.6879 4.52083 19.6042 4.99929 20.2896C5.42121 20.894 6.00194 21.3701 6.67737 21.6653C7.44332 22.0001 8.3778 22.0001 10.2467 22.0001H13.7533C15.6222 22.0001 16.5567 22.0001 17.3226 21.6653C17.9981 21.3701 18.5788 20.894 19.0007 20.2896C19.4792 19.6042 19.6624 18.6879 20.029 16.8552L21.5 9.5M1 11L7.47452 4.52548C9.05858 2.94142 9.85062 2.14938 10.7639 1.85263C11.5673 1.5916 12.4327 1.5916 13.2361 1.85263C14.1494 2.14938 14.9414 2.94142 16.5255 4.52548L23 11M15 12C15 13.6569 13.6569 15 12 15C10.3431 15 9 13.6569 9 12C9 10.3431 10.3431 9 12 9C13.6569 9 15 10.3431 15 12Z" stroke="#FFDB6E" stroke-width="1.5" stroke-linecap="round" stroke-linejoin="round"/>
</svg>
