<svg width="24" height="24" viewBox="0 0 24 24" fill="none" xmlns="http://www.w3.org/2000/svg">
<path opacity="0.12" d="M3.00003 12C3.00003 7.02944 7.02947 3 12 3C14.3064 3 16.4101 3.86752 18.0027 5.29404C20.2106 4.85301 21.8457 5.05317 22.3923 6.00001C22.9388 6.94653 22.2952 8.46192 20.8103 10.1529C19.2938 11.8798 16.8999 13.7898 14 15.4641C11.101 17.1378 8.25082 18.2558 5.99739 18.706C3.78941 19.147 2.15436 18.9468 1.6077 18C1.06121 17.0535 1.70481 15.5381 3.18975 13.8471C3.0654 13.2509 3.00003 12.6331 3.00003 12Z" fill="#FFDB6E"/>
<path d="M20.8103 10.1529C22.2952 8.46192 22.9388 6.94653 22.3923 6.00001C21.8457 5.05317 20.2106 4.85301 18.0027 5.29404M20.8103 10.1529C19.2938 11.8798 16.8999 13.7898 14 15.4641C8.26049 18.7778 2.71227 19.9132 1.6077 18C1.06121 17.0535 1.70481 15.5381 3.18975 13.8471M20.8103 10.1529C20.9347 10.7491 21 11.3669 21 12C21 16.9706 16.9706 21 12 21C7.66255 21 4.04173 17.9316 3.18975 13.8471M20.8103 10.1529C20.4113 8.2402 19.4052 6.55034 18.0027 5.29404M18.0027 5.29404C16.4101 3.86752 14.3064 3 12 3C7.02947 3 3.00003 7.02944 3.00003 12C3.00003 12.6331 3.0654 13.2509 3.18975 13.8471" stroke="#FFDB6E" stroke-width="1.5" stroke-linecap="round" stroke-linejoin="round"/>
</svg>
